<svg width="26" height="24" viewBox="0 0 26 24" fill="none" xmlns="http://www.w3.org/2000/svg">
<path d="M6.13616 15.3481L4.73615 23.2851C4.69832 23.5174 4.79291 23.7437 4.98841 23.8843C5.1839 24.0189 5.44246 24.0372 5.65057 23.9333L12.9975 20.1788L20.3443 23.9271C20.4389 23.9761 20.5398 23.9944 20.6407 23.9944C20.7328 23.9946 20.8238 23.9753 20.9074 23.9378C20.9909 23.9003 21.065 23.8456 21.1245 23.7775C21.184 23.7093 21.2273 23.6294 21.2516 23.5433C21.2759 23.4572 21.2805 23.367 21.2651 23.279L19.865 15.342L25.8119 9.7225C25.8956 9.64215 25.9546 9.54078 25.9823 9.42976C26.0099 9.31874 26.0052 9.20244 25.9685 9.0939C25.9318 8.98536 25.8647 8.88886 25.7747 8.8152C25.6847 8.74155 25.5753 8.69365 25.4588 8.67687L17.2416 7.52118L13.565 0.311854C13.3506 -0.103951 12.6443 -0.103951 12.4362 0.311854L8.7596 7.5273L0.542443 8.6891C0.302802 8.71968 0.107306 8.88478 0.0316297 9.10491C-0.0440463 9.32504 0.0190171 9.56963 0.189288 9.73473L6.13616 15.3481ZM9.2641 8.69522C9.47221 8.66465 9.64879 8.54235 9.73708 8.35891L12.9975 1.96285L16.2515 8.35891C16.3461 8.54235 16.5227 8.66465 16.7245 8.69522L24.002 9.7225L18.7362 14.6999C18.5849 14.8406 18.5218 15.0424 18.5533 15.2442L19.7957 22.2761L13.2875 18.9558C13.1929 18.9069 13.092 18.8886 12.9911 18.8886C12.8902 18.8886 12.7893 18.913 12.6947 18.9558L6.19292 22.27L7.43527 15.238C7.45339 15.1397 7.44617 15.0386 7.41427 14.9437C7.38236 14.8487 7.32675 14.7629 7.25238 14.6938L1.98659 9.71639L9.2641 8.69522Z" fill="black"/>
</svg>
